<svg xmlns="http://www.w3.org/2000/svg" viewBox="0 0 337.62 504.64"><defs><style>.cls-1,.cls-2{fill:none;stroke:#231f20;stroke-miterlimit:10;stroke-width:13px;}.cls-1{stroke-linecap:round;}</style></defs><g id="Layer_2" data-name="Layer 2"><path class="cls-1" d="M349.94,435.76s.36,47.69,0,69.22c-.64,38.94,58.15,32.66,84.76,33.51" transform="translate(-157.45 -40.35)"/><path class="cls-1" d="M262.94,435.76s-.35,47.69,0,69.22c.63,38.94-58.16,32.66-84.77,33.51" transform="translate(-157.45 -40.35)"/><line class="cls-2" x1="175.77" y1="429.71" x2="175.77" y2="429.71"/><path class="cls-2" d="M434.71,465" transform="translate(-157.45 -40.35)"/><path class="cls-2" d="M494.57,380.19" transform="translate(-157.45 -40.35)"/><path class="cls-2" d="M447.48,188.9V301.24A141.45,141.45,0,0,1,306,442.69h0" transform="translate(-157.45 -40.35)"/><rect class="cls-2" x="6.5" y="6.5" width="282.89" height="395.23" rx="141.45"/></g><g id="Layer_4" data-name="Layer 4"><path class="cls-1" d="M271.94,202.49s-3.07,47-70.47,47" transform="translate(-157.45 -40.35)"/><path class="cls-1" d="M337.67,202.49s3.06,47,70.47,47" transform="translate(-157.45 -40.35)"/><line class="cls-1" x1="31.76" y1="172.35" x2="114.48" y2="116.18"/><line class="cls-1" x1="261.7" y1="170.99" x2="178.97" y2="114.82"/><path class="cls-1" d="M271.94,366.83s.72-48,34.06-49c33.12-1,35.6,54.35,35.38,49" transform="translate(-157.45 -40.35)"/><path class="cls-2" d="M474.67,328.62s.51,99.57-96.51,127.15" transform="translate(-157.45 -40.35)"/><path class="cls-2" d="M488.66,388.19s-9.76,58.64-64,77.64" transform="translate(-157.45 -40.35)"/></g></svg>