<svg xmlns="http://www.w3.org/2000/svg" viewBox="0 0 326.57 504.64"><defs><style>.cls-1,.cls-2{fill:none;stroke:#231f20;stroke-miterlimit:10;stroke-width:13px;}.cls-1{stroke-linecap:round;}</style></defs><g id="Layer_5" data-name="Layer 5"><path class="cls-1" d="M270.67,202.49s-3.06,47-70.47,47" transform="translate(-157.77 -40.35)"/><path class="cls-1" d="M336.4,202.49s3.07,47,70.47,47" transform="translate(-157.77 -40.35)"/><line class="cls-1" x1="30.18" y1="172.35" x2="112.9" y2="116.18"/><line class="cls-1" x1="260.11" y1="171" x2="177.39" y2="114.83"/><path class="cls-1" d="M270.67,366.83s.72-48,34.06-49c33.13-1,35.6,54.35,35.39,49" transform="translate(-157.77 -40.35)"/><path class="cls-2" d="M376.89,455.77" transform="translate(-157.77 -40.35)"/><path class="cls-2" d="M473.41,328.62" transform="translate(-157.77 -40.35)"/><path class="cls-2" d="M423.45,465.83" transform="translate(-157.77 -40.35)"/><path class="cls-2" d="M487.39,388.19" transform="translate(-157.77 -40.35)"/><path class="cls-2" d="M451.38,437.26c-20.68,12.41-43.37,5.6-43.37,5.6S391,437,380,422l-.5-.68c-6.3-8.9-10.46-20.92-7.89-36.71,6.85-42.13,13.15-66.83,13.15-66.83l15.32,47.08,27.79-92.93L440,345.24l.27,1.68,2.6,15.76L467,302.57l10.72,85.62S481.15,419.41,451.38,437.26Z" transform="translate(-157.77 -40.35)"/><path class="cls-1" d="M350.26,435.76s.35,47.69,0,69.22c-.63,38.94,58.16,32.66,84.77,33.51" transform="translate(-157.77 -40.35)"/><path class="cls-1" d="M263.26,435.76s-.36,47.69,0,69.22c.64,38.94-58.15,32.66-84.76,33.51" transform="translate(-157.77 -40.35)"/><line class="cls-2" x1="175.77" y1="429.71" x2="175.77" y2="429.71"/><path class="cls-2" d="M435,465" transform="translate(-157.77 -40.35)"/><path class="cls-2" d="M380,422a140.8,140.8,0,0,1-73.68,20.68" transform="translate(-157.77 -40.35)"/><path class="cls-2" d="M447.8,188.9V301.24a141.21,141.21,0,0,1-7.54,45.68" transform="translate(-157.77 -40.35)"/><path class="cls-2" d="M447.16,188.3V300.64a141.46,141.46,0,0,1-7.17,44.6l-12.09-73.3-27.79,92.93-15.32-47.08s-6.3,24.7-13.15,66.83c-2.57,15.79,1.59,27.81,7.89,36.71A141.48,141.48,0,0,1,164.27,300.64V188.3a141.45,141.45,0,1,1,282.89,0Z" transform="translate(-157.77 -40.35)"/></g></svg>