<svg id="Layer_22" data-name="Layer 22" xmlns="http://www.w3.org/2000/svg" viewBox="0 0 527 374.27"><defs><style>.cls-1,.cls-2{fill:none;stroke:#231f20;stroke-miterlimit:10;stroke-width:17px;}.cls-2{stroke-linecap:round;}</style></defs><path class="cls-1" d="M420.47,322.78a.39.39,0,0,1-.05.13c-6.17,12.79-10.68,20.55-10.68,20.55s14.43,48.71-23.46,93.82c0,0-32.94-70.58-79.86-70.58S227,437.07,227,437.07c-37.89-45.11-23.46-93.83-23.46-93.83s-62.05-106.51-39.69-180.43c23.45-77.58,90.21-54.13,108.25-36.08,12,12,20.73,19.16,32.16,23.2h0c.89.31,1.77.6,2.69.87,12.42-3.87,21.53-11.21,34.18-23.86,18-18,84.8-41.5,108.25,36.09C465.73,216.94,437.15,288.16,420.47,322.78Z" transform="translate(-42.5 -98.36)"/><path class="cls-1" d="M307,150.8" transform="translate(-42.5 -98.36)"/><path class="cls-1" d="M420.47,322.78" transform="translate(-42.5 -98.36)"/><path class="cls-1" d="M304.31,149.93c11.51-4,20.42-11.16,32.37-23.28,18-18.23,87.53-49.66,115.89,47" transform="translate(-42.5 -98.36)"/><path class="cls-1" d="M420.42,322.91a187.18,187.18,0,0,0-11.15,22.14" transform="translate(-42.5 -98.36)"/><path class="cls-2" d="M442.53,267.19S578.87,173.64,559,460.52" transform="translate(-42.5 -98.36)"/><path class="cls-2" d="M169.47,270.8S33.13,177.25,53,464.13" transform="translate(-42.5 -98.36)"/></svg>