<svg id="Layer_22" data-name="Layer 22" xmlns="http://www.w3.org/2000/svg" viewBox="0 0 547.01 427.75"><defs><style>.cls-1,.cls-2{fill:none;stroke:#231f20;stroke-miterlimit:10;stroke-width:17px;}.cls-2{stroke-linecap:round;}</style></defs><path class="cls-1" d="M307,150.8" transform="translate(-42.62 -44.88)"/><path class="cls-1" d="M420.47,322.78" transform="translate(-42.62 -44.88)"/><path class="cls-1" d="M392.45,362.43l-.1.1c-10.59,9.46-17.72,14.91-17.72,14.91S369.35,428,317.1,455.17c0,0-3.47-77.82-46.82-95.75S170,394.11,170,394.11c-17.77-56.17,14.18-95.67,14.18-95.67s-16.63-122.13,32.28-181.9c51.33-62.73,104.06-15.54,113.83,8,6.48,15.63,11.84,25.63,20.85,33.73h0c.7.62,1.41,1.22,2.16,1.82,12.94,1.18,24.17-2.12,40.69-9,23.57-9.77,94.23-5.93,86.25,74.72C474.72,281.92,421.09,336.81,392.45,362.43Z" transform="translate(-42.62 -44.88)"/><path class="cls-1" d="M351.17,158.31c12.18.68,23.14-2.51,38.81-9.14,23.58-10,99.87-12.45,89.14,87.71" transform="translate(-42.62 -44.88)"/><path class="cls-1" d="M409.27,345.05" transform="translate(-42.62 -44.88)"/><path class="cls-1" d="M420.42,322.91" transform="translate(-42.62 -44.88)"/><path class="cls-2" d="M473.5,254.5s105.37-80.86,85.53,206" transform="translate(-42.62 -44.88)"/><path class="cls-2" d="M179.5,274.5S33.13,177.25,53,464.13" transform="translate(-42.62 -44.88)"/><path class="cls-1" d="M446.84,117.79s63.66-2.29,68.66,82.71" transform="translate(-42.62 -44.88)"/><path class="cls-1" d="M446.84,85.55s96-5,102.84,118" transform="translate(-42.62 -44.88)"/><path class="cls-1" d="M651.5,129.5" transform="translate(-42.62 -44.88)"/><path class="cls-1" d="M446.84,53.38S581.76,51.5,581.13,203.5" transform="translate(-42.62 -44.88)"/></svg>