<svg id="Layer_22" data-name="Layer 22" xmlns="http://www.w3.org/2000/svg" viewBox="0 0 527 396.35"><defs><style>.cls-1,.cls-2{fill:none;stroke:#231f20;stroke-miterlimit:10;stroke-width:17px;}.cls-2{stroke-linecap:round;}</style></defs><path class="cls-1" d="M307,150.8" transform="translate(-42.55 -76.28)"/><path class="cls-1" d="M420.47,322.78" transform="translate(-42.55 -76.28)"/><path class="cls-1" d="M417,330l-.07.12c-7,12.37-12,19.82-12,19.82s11.26,49.55-29.46,92.11c0,0-28.33-72.56-75.14-75.58s-83.76,65.09-83.76,65.09c-34.9-47.45-17.36-95.14-17.36-95.14s-55-110.28-28-182.61c28.41-75.91,93.52-48.2,110.36-29C292.76,137.51,301,145.26,312.18,150h0c.86.37,1.72.71,2.62,1,12.64-3,22.21-9.79,35.65-21.6,19.16-16.84,87.3-35.94,105.7,43C469,227.32,435.84,296.54,417,330Z" transform="translate(-42.55 -76.28)"/><path class="cls-1" d="M312.2,150c11.74-3.27,21.09-9.81,33.8-21.14,19.12-17,90.55-43.91,112.62,54.37" transform="translate(-42.55 -76.28)"/><path class="cls-1" d="M420.42,322.91a187.18,187.18,0,0,0-11.15,22.14" transform="translate(-42.55 -76.28)"/><path class="cls-2" d="M446.5,266.5s132.37-92.86,112.53,194" transform="translate(-42.55 -76.28)"/><path class="cls-2" d="M173.5,272.5S33.13,177.25,53,464.13" transform="translate(-42.55 -76.28)"/><path class="cls-1" d="M420.84,84.79S484.5,82.5,489.5,167.5" transform="translate(-42.55 -76.28)"/></svg>