<svg xmlns="http://www.w3.org/2000/svg" viewBox="0 0 389.79 504.64"><defs><style>.cls-1,.cls-3{fill:none;stroke-width:13px;}.cls-1,.cls-2,.cls-3{stroke:#231f20;stroke-miterlimit:10;}.cls-2{fill:#231f20;stroke-width:7px;}.cls-3{stroke-linecap:round;}</style></defs><g id="Layer_3" data-name="Layer 3"><polyline class="cls-1" points="41.71 150.15 112.18 191.51 41.71 220.22"/><polyline class="cls-1" points="255.46 150.15 184.99 191.51 255.46 220.22"/><rect class="cls-1" x="90.48" y="296.44" width="116.43" height="32.17" rx="16.09"/><line class="cls-1" x1="115.76" y1="296.44" x2="115.76" y2="334.73"/><line class="cls-1" x1="149.21" y1="296.44" x2="149.21" y2="328.61"/><line class="cls-1" x1="184.99" y1="296.44" x2="184.99" y2="328.61"/><polygon class="cls-2" points="363.58 233.44 382.98 245.9 355.82 260.96 379.34 276.07 322.85 297.86 350.23 276.59 323.56 259.45 363.58 233.44"/><polygon class="cls-2" points="377.68 343.82 382.98 366.26 352.99 358.23 359.4 385.44 303.63 361.88 338.1 365.59 330.82 334.73 377.68 343.82"/><polygon class="cls-2" points="330.71 432.47 323.74 454.45 302.12 432.16 293.66 458.81 257.89 409.95 285.57 430.84 295.16 400.62 330.71 432.47"/></g><g id="Layer_2" data-name="Layer 2"><path class="cls-3" d="M349.94,435.76s.36,47.69,0,69.22c-.64,38.94,58.15,32.66,84.76,33.51" transform="translate(-157.45 -40.35)"/><path class="cls-3" d="M262.94,435.76s-.35,47.69,0,69.22c.63,38.94-58.16,32.66-84.77,33.51" transform="translate(-157.45 -40.35)"/><line class="cls-1" x1="175.77" y1="429.71" x2="175.77" y2="429.71"/><path class="cls-1" d="M434.71,465" transform="translate(-157.45 -40.35)"/><path class="cls-1" d="M494.57,380.19" transform="translate(-157.45 -40.35)"/><path class="cls-1" d="M447.48,188.9V301.24A141.45,141.45,0,0,1,306,442.69h0" transform="translate(-157.45 -40.35)"/><rect class="cls-1" x="6.5" y="6.5" width="282.89" height="395.23" rx="141.45"/></g></svg>