<svg xmlns="http://www.w3.org/2000/svg" viewBox="0 0 555.02 517.03"><defs><style>.cls-1,.cls-2,.cls-3{fill:none;stroke:#231f20;stroke-miterlimit:10;}.cls-1,.cls-3{stroke-width:13px;}.cls-2{stroke-width:17px;}.cls-3{stroke-linecap:round;}</style></defs><g id="Layer_17" data-name="Layer 17"><path class="cls-1" d="M525.25,440a63.89,63.89,0,0,1-1.77,15H90.91a93,93,0,0,1,85.34-130q3.78,0,7.49.3a143,143,0,0,1,281.48,50.83A64,64,0,0,1,525.25,440Z" transform="translate(-28.49 -5.5)"/><line class="cls-1" x1="7.26" y1="449.53" x2="5.76" y2="449.53"/><path class="cls-1" d="M576.25,455s-3,27-30,28l-20,33h-440l-20.5-33c-27-1-30-28-30-28Z" transform="translate(-28.49 -5.5)"/><line class="cls-1" x1="549.26" y1="449.53" x2="547.76" y2="449.53"/><path class="cls-1" d="M269.25,595" transform="translate(-28.49 -5.5)"/><line class="cls-2" x1="23.28" y1="229.83" x2="115.28" y2="321.83"/></g><g id="Layer_18" data-name="Layer 18"><line class="cls-3" x1="299.27" y1="6.5" x2="299.27" y2="180.5"/><line class="cls-3" x1="211.51" y1="93.04" x2="387.02" y2="93.04"/><line class="cls-3" x1="281.69" y1="25.33" x2="299.26" y2="47.55"/><line class="cls-3" x1="316.83" y1="25.33" x2="299.26" y2="47.55"/><line class="cls-3" x1="319.8" y1="164.68" x2="299.25" y2="138.69"/><line class="cls-3" x1="278.71" y1="164.68" x2="299.26" y2="138.69"/><line class="cls-3" x1="368.94" y1="72.87" x2="343.32" y2="93.13"/><line class="cls-3" x1="368.94" y1="113.38" x2="343.32" y2="93.12"/><line class="cls-3" x1="234.11" y1="111.58" x2="257.45" y2="93.12"/><line class="cls-3" x1="234.11" y1="74.67" x2="257.45" y2="93.13"/><line class="cls-3" x1="263.05" y1="57.67" x2="338.59" y2="133.21"/><line class="cls-3" x1="261.83" y1="130.66" x2="336.94" y2="55.54"/></g></svg>