<svg id="Layer_17" data-name="Layer 17" xmlns="http://www.w3.org/2000/svg" viewBox="0 0 555.02 320"><defs><style>.cls-1,.cls-2{fill:none;stroke:#231f20;stroke-miterlimit:10;}.cls-1{stroke-width:13px;}.cls-2{stroke-width:17px;}</style></defs><path class="cls-1" d="M525.25,440a63.89,63.89,0,0,1-1.77,15H90.91a93,93,0,0,1,85.34-130q3.78,0,7.49.3a143,143,0,0,1,281.48,50.83A64,64,0,0,1,525.25,440Z" transform="translate(-28.49 -202.53)"/><line class="cls-1" x1="7.26" y1="252.5" x2="5.76" y2="252.5"/><path class="cls-1" d="M576.25,455s-3,27-30,28l-20,33h-440l-20.5-33c-27-1-30-28-30-28Z" transform="translate(-28.49 -202.53)"/><line class="cls-1" x1="549.26" y1="252.5" x2="547.76" y2="252.5"/><path class="cls-1" d="M269.25,595" transform="translate(-28.49 -202.53)"/><line class="cls-2" x1="23.28" y1="32.8" x2="115.28" y2="124.8"/></svg>