<svg xmlns="http://www.w3.org/2000/svg" viewBox="0 0 555.02 488.53"><defs><style>.cls-1,.cls-2,.cls-3{fill:none;stroke:#231f20;stroke-miterlimit:10;}.cls-1,.cls-3{stroke-width:13px;}.cls-2{stroke-width:17px;}.cls-3{stroke-linecap:round;}</style></defs><g id="Layer_17" data-name="Layer 17"><path class="cls-1" d="M525.25,440a63.89,63.89,0,0,1-1.77,15H90.91a93,93,0,0,1,85.34-130q3.78,0,7.49.3a143,143,0,0,1,281.48,50.83A64,64,0,0,1,525.25,440Z" transform="translate(-28.49 -34)"/><line class="cls-1" x1="7.26" y1="421.03" x2="5.76" y2="421.03"/><path class="cls-1" d="M576.25,455s-3,27-30,28l-20,33h-440l-20.5-33c-27-1-30-28-30-28Z" transform="translate(-28.49 -34)"/><line class="cls-1" x1="549.26" y1="421.03" x2="547.76" y2="421.03"/><path class="cls-1" d="M269.25,595" transform="translate(-28.49 -34)"/><line class="cls-2" x1="23.28" y1="201.33" x2="115.28" y2="293.33"/></g><g id="Layer_20" data-name="Layer 20"><path class="cls-3" d="M263.5,45.5s-39.31,16.76-33,42c6,24,42,17,51,42,11.18,31.05-32,49-32,49" transform="translate(-28.49 -34)"/><path class="cls-3" d="M328.76,40.5s-39.31,16.76-33,42c6,24,42,17,51,42,11.18,31.05-32,49-32,49" transform="translate(-28.49 -34)"/><path class="cls-3" d="M395.76,40.5s-39.31,16.76-33,42c6,24,42,17,51,42,11.18,31.05-32,49-32,49" transform="translate(-28.49 -34)"/></g></svg>