<svg xmlns="http://www.w3.org/2000/svg" viewBox="0 0 374.25 504.64"><defs><style>.cls-1,.cls-2,.cls-4,.cls-5{fill:none;}.cls-1,.cls-2,.cls-3,.cls-4,.cls-5,.cls-6{stroke:#231f20;stroke-miterlimit:10;}.cls-1,.cls-2,.cls-3{stroke-width:13px;}.cls-2,.cls-3,.cls-4,.cls-6{stroke-linecap:round;}.cls-3,.cls-6{fill:#231f20;}.cls-4,.cls-5{stroke-width:19px;}.cls-6{stroke-width:12px;}</style></defs><g id="Layer_7" data-name="Layer 7"><circle class="cls-1" cx="79.46" cy="183.02" r="28.14"/><circle class="cls-1" cx="215.34" cy="183.02" r="28.14"/><line class="cls-2" x1="36.63" y1="134.98" x2="97.45" y2="113.15"/><line class="cls-2" x1="253.61" y1="135.38" x2="192.78" y2="113.55"/><polygon class="cls-3" points="147.95 265.65 118.03 316.29 180.4 316.29 147.95 265.65"/><polyline class="cls-4" points="222.65 329.1 347.63 204.12 352.13 199.61"/><line class="cls-5" x1="89.9" y1="453.43" x2="148.58" y2="402.34"/><polygon class="cls-6" points="83.47 422.86 60.5 472.62 114.12 456.88 86.89 450.6 83.47 422.86"/><line class="cls-5" x1="367.53" y1="183.81" x2="348.45" y2="202.9"/><line class="cls-1" x1="292.13" y1="378.67" x2="324.22" y2="404.9"/><line class="cls-1" x1="258.64" y1="410.29" x2="278.57" y2="445.23"/><line class="cls-1" x1="311.83" y1="339.28" x2="352.98" y2="348.98"/></g><g id="Layer_2" data-name="Layer 2"><path class="cls-2" d="M349.94,435.76s.36,47.69,0,69.22c-.64,38.94,58.15,32.66,84.76,33.51" transform="translate(-157.45 -40.35)"/><path class="cls-2" d="M262.94,435.76s-.35,47.69,0,69.22c.63,38.94-58.16,32.66-84.77,33.51" transform="translate(-157.45 -40.35)"/><line class="cls-1" x1="175.77" y1="429.71" x2="175.77" y2="429.71"/><path class="cls-1" d="M434.71,465" transform="translate(-157.45 -40.35)"/><path class="cls-1" d="M494.57,380.19" transform="translate(-157.45 -40.35)"/><path class="cls-1" d="M447.48,188.9V301.24A141.45,141.45,0,0,1,306,442.69h0" transform="translate(-157.45 -40.35)"/><rect class="cls-1" x="6.5" y="6.5" width="282.89" height="395.23" rx="141.45"/></g></svg>