<svg xmlns="http://www.w3.org/2000/svg" viewBox="0 0 324.49 504.23"><defs><style>.cls-1,.cls-2{fill:none;stroke:#231f20;stroke-miterlimit:10;stroke-width:13px;}.cls-1{stroke-linecap:round;}</style></defs><g id="Layer_15" data-name="Layer 15"><path class="cls-1" d="M350.56,435.76s.36,47.69,0,69.22c-.63,38.94,58.15,32.66,84.77,33.51" transform="translate(-158.07 -40.76)"/><path class="cls-1" d="M263.56,435.76s-.35,47.69,0,69.22c.63,38.94-58.15,32.66-84.77,33.51" transform="translate(-158.07 -40.76)"/><line class="cls-2" x1="175.78" y1="429.3" x2="175.78" y2="429.3"/><path class="cls-2" d="M435.34,465" transform="translate(-158.07 -40.76)"/><path class="cls-2" d="M495.2,380.19" transform="translate(-158.07 -40.76)"/><path class="cls-2" d="M355.92,433.87a140.93,140.93,0,0,1-49.26,8.82" transform="translate(-158.07 -40.76)"/><path class="cls-2" d="M476.06,380.19a72.06,72.06,0,0,1-120.14,53.68l-.66-.59c-.72-.67-1.43-1.34-2.12-2a140.84,140.84,0,0,1-44.2,10.81c-1,0-1.94,0-2.92,0A141.45,141.45,0,0,1,164.57,300.64V188.3a141.46,141.46,0,0,1,130.12-141c1,0,2.05,0,3.08,0A141.43,141.43,0,0,1,439.22,188.7V301a144.34,144.34,0,0,1-.87,15.79,73,73,0,0,1,7.58,4.75l.65.47A71.94,71.94,0,0,1,476.06,380.19Z" transform="translate(-158.07 -40.76)"/></g><g id="Layer_14" data-name="Layer 14"><path class="cls-1" d="M273.15,202.49s-3.06,47-70.46,47" transform="translate(-158.07 -40.76)"/><path class="cls-1" d="M334.89,202.49s3.06,47,70.46,47" transform="translate(-158.07 -40.76)"/><line class="cls-1" x1="32.36" y1="171.94" x2="115.08" y2="115.77"/><line class="cls-1" x1="260.3" y1="170.59" x2="177.57" y2="114.42"/><path class="cls-1" d="M273.15,366.83s.73-48,34.07-49c33.12-1,35.6,54.35,35.38,49" transform="translate(-158.07 -40.76)"/></g></svg>