<svg xmlns="http://www.w3.org/2000/svg" viewBox="0 0 343.66 506.24"><defs><style>.cls-1,.cls-2{fill:none;}.cls-1,.cls-2,.cls-3{stroke:#231f20;stroke-miterlimit:10;stroke-width:13px;}.cls-1{stroke-linecap:round;}.cls-3{fill:#231f20;}</style></defs><g id="Layer_2" data-name="Layer 2"><path class="cls-1" d="M349.94,435.76s.36,47.69,0,69.22c-.64,38.94,58.15,32.66,84.76,33.51" transform="translate(-157.41 -40.35)"/><path class="cls-1" d="M262.94,435.76s-.35,47.69,0,69.22c.63,38.94-58.16,32.66-84.77,33.51" transform="translate(-157.41 -40.35)"/><line class="cls-2" x1="175.81" y1="429.71" x2="175.81" y2="429.71"/><path class="cls-2" d="M434.71,465" transform="translate(-157.41 -40.35)"/><path class="cls-2" d="M494.57,380.19" transform="translate(-157.41 -40.35)"/><path class="cls-2" d="M447.48,188.9V301.24A141.45,141.45,0,0,1,306,442.69h0" transform="translate(-157.41 -40.35)"/><rect class="cls-2" x="6.54" y="6.5" width="282.89" height="395.23" rx="141.45"/></g><g id="Layer_6" data-name="Layer 6"><path class="cls-1" d="M349.9,437.37s.36,47.69,0,69.21c-.63,38.95,58.15,32.67,84.77,33.51" transform="translate(-157.41 -40.35)"/><path class="cls-1" d="M262.9,437.37s-.35,47.69,0,69.21c.63,38.95-58.15,32.67-84.77,33.51" transform="translate(-157.41 -40.35)"/><line class="cls-2" x1="175.77" y1="431.32" x2="175.77" y2="431.32"/><path class="cls-2" d="M434.68,466.56" transform="translate(-157.41 -40.35)"/><path class="cls-2" d="M494.54,381.79" transform="translate(-157.41 -40.35)"/><path class="cls-2" d="M447.44,190.5V302.85A141.44,141.44,0,0,1,306,444.29h0" transform="translate(-157.41 -40.35)"/><rect class="cls-2" x="6.5" y="8.1" width="282.89" height="395.23" rx="141.45"/><path class="cls-2" d="M274,215.77" transform="translate(-157.41 -40.35)"/><path class="cls-2" d="M274,215.77" transform="translate(-157.41 -40.35)"/><path class="cls-2" d="M207.34,240.28" transform="translate(-157.41 -40.35)"/><polyline class="cls-2" points="41.53 150.15 112 191.51 41.53 220.22"/><polyline class="cls-2" points="255.28 150.15 184.81 191.51 255.28 220.22"/><polyline class="cls-2" points="84.93 289.93 105.58 317.5 124.72 287.63 147.7 317.5 172.21 287.63 190.6 317.5 213.57 287.63"/><ellipse class="cls-2" cx="424.54" cy="375.87" rx="92.68" ry="44.49" transform="translate(-231.11 606.21) rotate(-70.03)"/><ellipse class="cls-3" cx="454.5" cy="385.96" rx="65.33" ry="35.41" transform="translate(-220.86 641.01) rotate(-70.03)"/></g></svg>