<svg width="924" height="303" viewBox="0 0 924 303" fill="none" xmlns="http://www.w3.org/2000/svg">
<path d="M50.2215 228H0.721485V2.99998H50.2215V90.3L120.421 2.99998H180.721L101.821 103.2L189.421 228H127.021L68.8215 144.3L50.2215 167.4V228ZM260.711 228H211.811V2.99998H260.711V228ZM368.786 60C420.686 60 445.586 110.7 445.586 146.4V162H330.986C336.086 180 351.986 189.9 368.786 189.9C384.686 189.9 395.486 186.3 405.086 176.1L438.386 201.6C424.286 218.1 395.486 232.5 368.786 232.5C314.186 232.5 287.486 186.9 287.486 146.7C287.486 105.3 318.986 60 368.786 60ZM368.786 99.6C350.786 99.6 336.686 111.9 332.786 124.8H402.086C399.086 112.2 384.386 99.6 368.786 99.6ZM472.261 64.5H519.061L521.161 84.9C531.061 71.1 548.161 60 573.361 60C613.261 60 651.061 93.3 651.061 146.1C651.061 197.4 608.761 232.5 573.361 232.5C548.161 232.5 530.161 220.8 521.161 207.6V303H472.261V64.5ZM518.761 146.4C518.761 169.8 538.261 189.9 560.161 189.9C583.561 189.9 602.161 169.8 602.161 146.4C602.161 123 583.561 103.5 560.161 103.5C536.761 103.5 518.761 123 518.761 146.4ZM677.632 64.5H726.532V228H677.632V64.5ZM675.532 26.7C675.532 12 687.232 -1.50204e-05 701.932 -1.50204e-05C716.632 -1.50204e-05 728.632 12 728.632 26.7C728.632 41.4 716.632 53.1 701.932 53.1C687.232 53.1 675.532 41.4 675.532 26.7ZM753.307 146.1C753.307 99.3 791.407 60 838.507 60C885.607 60 924.007 99.3 924.007 146.1C924.007 193.5 885.607 232.2 838.507 232.2C791.407 232.2 753.307 193.5 753.307 146.1ZM799.807 145.5C799.807 167.7 816.607 185.4 838.507 185.4C860.407 185.4 877.807 167.7 877.807 145.5C877.807 123.9 860.407 105 838.507 105C816.607 105 799.807 123.9 799.807 145.5Z" fill="black"/>
</svg>
