<svg xmlns="http://www.w3.org/2000/svg" viewBox="0 0 352.63 504.64"><defs><style>.cls-1,.cls-3,.cls-4,.cls-5{fill:none;}.cls-1,.cls-2,.cls-3,.cls-4,.cls-5{stroke:#231f20;stroke-miterlimit:10;}.cls-1,.cls-2,.cls-5{stroke-width:13px;}.cls-2{fill:#231f20;}.cls-3{stroke-width:10px;}.cls-4{stroke-width:16px;}.cls-5{stroke-linecap:round;}</style></defs><g id="Layer_8" data-name="Layer 8"><rect class="cls-1" x="91.91" y="296.44" width="127.4" height="32.17" rx="16.09"/><line class="cls-1" x1="116.28" y1="296.44" x2="116.28" y2="334.73"/><line class="cls-1" x1="149.73" y1="296.44" x2="149.73" y2="328.61"/><line class="cls-1" x1="185.5" y1="296.44" x2="185.5" y2="328.61"/><ellipse class="cls-2" cx="93.91" cy="179.6" rx="11.58" ry="18.73"/><ellipse class="cls-2" cx="207.43" cy="179.6" rx="11.58" ry="18.73"/><polyline class="cls-3" points="122.66 117.97 122.66 134.05 40.92 134.05"/><polyline class="cls-3" points="175.77 117.97 175.77 134.05 257.51 134.05"/><path class="cls-4" d="M441,312.79A56.53,56.53,0,0,1,388.87,413.1" transform="translate(-157.45 -40.35)"/><path class="cls-4" d="M504.57,462,450.74,410.7a56.53,56.53,0,1,0-65.51-92.14" transform="translate(-157.45 -40.35)"/></g><g id="Layer_2" data-name="Layer 2"><path class="cls-5" d="M349.94,435.76s.36,47.69,0,69.22c-.64,38.94,58.15,32.66,84.76,33.51" transform="translate(-157.45 -40.35)"/><path class="cls-5" d="M262.94,435.76s-.35,47.69,0,69.22c.63,38.94-58.16,32.66-84.77,33.51" transform="translate(-157.45 -40.35)"/><line class="cls-1" x1="175.77" y1="429.71" x2="175.77" y2="429.71"/><path class="cls-1" d="M434.71,465" transform="translate(-157.45 -40.35)"/><path class="cls-1" d="M494.57,380.19" transform="translate(-157.45 -40.35)"/><path class="cls-1" d="M447.48,188.9V301.24A141.45,141.45,0,0,1,306,442.69h0" transform="translate(-157.45 -40.35)"/><rect class="cls-1" x="6.5" y="6.5" width="282.89" height="395.23" rx="141.45"/></g></svg>