<svg id="Layer_22" data-name="Layer 22" xmlns="http://www.w3.org/2000/svg" viewBox="0 0 527.08 431.61"><defs><style>.cls-1,.cls-2{fill:none;stroke:#231f20;stroke-miterlimit:10;stroke-width:17px;}.cls-2{stroke-linecap:round;}</style></defs><path class="cls-1" d="M307,150.8" transform="translate(-42.58 -41.02)"/><path class="cls-1" d="M420.47,322.78" transform="translate(-42.58 -41.02)"/><path class="cls-1" d="M410.33,341.19l-.07.12c-8.24,11.57-14,18.46-14,18.46s6,50.45-38.89,88.54c0,0-20.61-75.11-66.86-83s-90.08,56-90.08,56c-29.77-50.83-7.36-96.43-7.36-96.43s-43.26-115.42-8.8-184.53c36.16-72.54,98-38.2,112.78-17.38,9.79,13.81,17.22,22.38,27.8,28.28h0c.82.45,1.64.89,2.5,1.31,12.89-1.72,23.1-7.43,37.7-17.77,20.82-14.75,90.57-26.66,100.65,53.77C472.73,244.46,432.59,309.86,410.33,341.19Z" transform="translate(-42.58 -41.02)"/><path class="cls-1" d="M324.88,151.27c12-2,22-7.56,35.82-17.5,20.79-15,94.63-34.25,106.34,65.79" transform="translate(-42.58 -41.02)"/><path class="cls-1" d="M409.27,345.05" transform="translate(-42.58 -41.02)"/><path class="cls-1" d="M420.42,322.91" transform="translate(-42.58 -41.02)"/><path class="cls-2" d="M453.5,262.5s125.37-88.86,105.53,198" transform="translate(-42.58 -41.02)"/><path class="cls-2" d="M175.5,273.5S33.13,177.25,53,464.13" transform="translate(-42.58 -41.02)"/><path class="cls-1" d="M420.84,84.79S484.5,82.5,489.5,167.5" transform="translate(-42.58 -41.02)"/><path class="cls-1" d="M420.84,49.55s96-5,102.84,118" transform="translate(-42.58 -41.02)"/><path class="cls-1" d="M651.5,129.5" transform="translate(-42.58 -41.02)"/></svg>