<svg xmlns="http://www.w3.org/2000/svg" viewBox="0 0 296.53 504.64"><defs><style>.cls-1,.cls-2,.cls-3{fill:none;}.cls-1,.cls-2,.cls-3,.cls-4{stroke:#231f20;stroke-miterlimit:10;}.cls-1,.cls-3,.cls-4{stroke-linecap:round;}.cls-1,.cls-2,.cls-4{stroke-width:13px;}.cls-3{stroke-width:20px;}.cls-4{fill:#231f20;}</style></defs><g id="Layer_2" data-name="Layer 2"><path class="cls-1" d="M349.94,435.76s.36,47.69,0,69.22c-.64,38.94,58.15,32.66,84.76,33.51" transform="translate(-157.45 -40.35)"/><path class="cls-1" d="M262.94,435.76s-.35,47.69,0,69.22c.63,38.94-58.16,32.66-84.77,33.51" transform="translate(-157.45 -40.35)"/><line class="cls-2" x1="175.77" y1="429.71" x2="175.77" y2="429.71"/><path class="cls-2" d="M434.71,465" transform="translate(-157.45 -40.35)"/><path class="cls-2" d="M494.57,380.19" transform="translate(-157.45 -40.35)"/><path class="cls-2" d="M447.48,188.9V301.24A141.45,141.45,0,0,1,306,442.69h0" transform="translate(-157.45 -40.35)"/><rect class="cls-2" x="6.5" y="6.5" width="282.89" height="395.23" rx="141.45"/></g><g id="Layer_9" data-name="Layer 9"><line class="cls-3" x1="77.43" y1="281.81" x2="221" y2="281.81"/><circle class="cls-4" cx="77.43" cy="172.26" r="13.87"/><circle class="cls-4" cx="221" cy="172.26" r="13.87"/></g></svg>