<svg xmlns="http://www.w3.org/2000/svg" viewBox="0 0 296.53 504.64"><defs><style>.cls-1,.cls-2,.cls-3{fill:none;stroke:#231f20;stroke-miterlimit:10;}.cls-1{stroke-linecap:round;}.cls-1,.cls-2{stroke-width:13px;}.cls-3{stroke-width:11px;}</style></defs><g id="Layer_2" data-name="Layer 2"><path class="cls-1" d="M349.94,435.76s.36,47.69,0,69.22c-.64,38.94,58.15,32.66,84.76,33.51" transform="translate(-157.45 -40.35)"/><path class="cls-1" d="M262.94,435.76s-.35,47.69,0,69.22c.63,38.94-58.16,32.66-84.77,33.51" transform="translate(-157.45 -40.35)"/><line class="cls-2" x1="175.77" y1="429.71" x2="175.77" y2="429.71"/><path class="cls-2" d="M434.71,465" transform="translate(-157.45 -40.35)"/><path class="cls-2" d="M494.57,380.19" transform="translate(-157.45 -40.35)"/><path class="cls-2" d="M447.48,188.9V301.24A141.45,141.45,0,0,1,306,442.69h0" transform="translate(-157.45 -40.35)"/><rect class="cls-2" x="6.5" y="6.5" width="282.89" height="395.23" rx="141.45"/></g><g id="Layer_12" data-name="Layer 12"><path class="cls-1" d="M194.81,232.69s52.9-.49,86.87-19.41" transform="translate(-157.45 -40.35)"/><path class="cls-1" d="M417.74,232.69s-52.9-.49-86.87-19.41" transform="translate(-157.45 -40.35)"/><path class="cls-2" d="M273.46,140.27S254.05,184,179.8,216" transform="translate(-157.45 -40.35)"/><path class="cls-2" d="M338.39,140s19.42,43.67,93.67,75.71" transform="translate(-157.45 -40.35)"/><line class="cls-3" x1="37.36" y1="192.34" x2="37.36" y2="353.27"/><line class="cls-3" x1="260.29" y1="192.34" x2="260.29" y2="350.69"/><line class="cls-3" x1="63.74" y1="192.34" x2="63.74" y2="374.92"/><line class="cls-3" x1="234.82" y1="192.34" x2="234.82" y2="374.92"/><circle class="cls-2" cx="148.55" cy="308.46" r="45.94"/></g></svg>