<svg xmlns="http://www.w3.org/2000/svg" viewBox="0 0 296.53 504.64"><defs><style>.cls-1,.cls-2{fill:none;stroke:#231f20;stroke-miterlimit:10;stroke-width:13px;}.cls-1{stroke-linecap:round;}</style></defs><g id="Layer_2" data-name="Layer 2"><path class="cls-1" d="M349.94,435.76s.36,47.69,0,69.22c-.64,38.94,58.15,32.66,84.76,33.51" transform="translate(-157.45 -40.35)"/><path class="cls-1" d="M262.94,435.76s-.35,47.69,0,69.22c.63,38.94-58.16,32.66-84.77,33.51" transform="translate(-157.45 -40.35)"/><line class="cls-2" x1="175.77" y1="429.71" x2="175.77" y2="429.71"/><path class="cls-2" d="M434.71,465" transform="translate(-157.45 -40.35)"/><path class="cls-2" d="M494.57,380.19" transform="translate(-157.45 -40.35)"/><path class="cls-2" d="M447.48,188.9V301.24A141.45,141.45,0,0,1,306,442.69h0" transform="translate(-157.45 -40.35)"/><rect class="cls-2" x="6.5" y="6.5" width="282.89" height="395.23" rx="141.45"/></g><g id="Layer_11" data-name="Layer 11"><path class="cls-1" d="M242.28,367.87S253.42,319,308,317.42s69.35,50.45,69.35,50.45" transform="translate(-157.45 -40.35)"/><path class="cls-1" d="M211.2,221.1s2.47,26.5,26.71,27,24.76-27,24.76-27" transform="translate(-157.45 -40.35)"/><path class="cls-1" d="M351.6,221.1s2.48,26.5,26.72,27,24.76-27,24.76-27" transform="translate(-157.45 -40.35)"/><line class="cls-2" x1="116.94" y1="132.84" x2="22.66" y2="157.3"/><line class="cls-2" x1="177.48" y1="132.84" x2="271.76" y2="157.3"/></g></svg>