<svg xmlns="http://www.w3.org/2000/svg" viewBox="0 0 296.53 504.64"><defs><style>.cls-1,.cls-2,.cls-4,.cls-5{fill:none;}.cls-1,.cls-2,.cls-3,.cls-4,.cls-5,.cls-6{stroke:#231f20;stroke-miterlimit:10;}.cls-1,.cls-3,.cls-5,.cls-6{stroke-linecap:round;}.cls-1,.cls-2,.cls-3{stroke-width:13px;}.cls-3,.cls-6{fill:#231f20;}.cls-4{stroke-width:16px;}.cls-5,.cls-6{stroke-width:5px;}</style></defs><g id="Layer_2" data-name="Layer 2"><path class="cls-1" d="M349.94,435.76s.36,47.69,0,69.22c-.64,38.94,58.15,32.66,84.76,33.51" transform="translate(-157.45 -40.35)"/><path class="cls-1" d="M262.94,435.76s-.35,47.69,0,69.22c.63,38.94-58.16,32.66-84.77,33.51" transform="translate(-157.45 -40.35)"/><line class="cls-2" x1="175.77" y1="429.71" x2="175.77" y2="429.71"/><path class="cls-2" d="M434.71,465" transform="translate(-157.45 -40.35)"/><path class="cls-2" d="M494.57,380.19" transform="translate(-157.45 -40.35)"/><path class="cls-2" d="M447.48,188.9V301.24A141.45,141.45,0,0,1,306,442.69h0" transform="translate(-157.45 -40.35)"/><rect class="cls-2" x="6.5" y="6.5" width="282.89" height="395.23" rx="141.45"/></g><g id="Layer_13" data-name="Layer 13"><circle class="cls-3" cx="224.52" cy="171.87" r="14.71"/><circle class="cls-3" cx="79.65" cy="171.87" r="14.71"/><polyline class="cls-4" points="113.58 105.88 113.58 128.58 34.96 128.58"/><polyline class="cls-4" points="183.59 103.88 183.59 126.58 262.21 126.58"/><rect class="cls-2" x="81.45" y="265.8" width="147.48" height="67.98" rx="33.99"/><circle class="cls-5" cx="195.47" cy="309.37" r="10.34"/><circle class="cls-6" cx="176.54" cy="299.79" r="0.76"/><circle class="cls-6" cx="182.83" cy="287.05" r="0.76"/><circle class="cls-6" cx="163.06" cy="286.29" r="0.76"/><circle class="cls-6" cx="213.61" cy="299.03" r="0.76"/></g></svg>