<svg id="Layer_1" data-name="Layer 1" xmlns="http://www.w3.org/2000/svg" viewBox="0 0 339.63 503.34"><defs><style>.cls-1,.cls-2,.cls-4,.cls-5{fill:none;}.cls-1,.cls-2,.cls-3,.cls-4,.cls-5,.cls-6{stroke:#231f20;stroke-miterlimit:10;}.cls-1,.cls-3,.cls-4,.cls-6{stroke-linecap:round;}.cls-1,.cls-2,.cls-3{stroke-width:13px;}.cls-3,.cls-6{fill:#231f20;}.cls-4,.cls-5{stroke-width:19px;}.cls-6{stroke-width:12px;}</style></defs><path class="cls-1" d="M174,395.87s.32,47.56,0,69c-.57,38.84,52.52,32.58,76.55,33.42" transform="translate(0.49 -1.48)"/><path class="cls-1" d="M95.4,395.87s-.32,47.56,0,69c.57,38.84-52.52,32.58-76.55,33.42" transform="translate(0.49 -1.48)"/><line class="cls-2" x1="159.37" y1="428.59" x2="159.37" y2="428.59"/><path class="cls-2" d="M250.53,425" transform="translate(0.49 -1.48)"/><path class="cls-2" d="M304.59,340.44" transform="translate(0.49 -1.48)"/><path class="cls-2" d="M262.06,149.66v112c0,77.91-57.19,141.07-127.74,141.07h0" transform="translate(0.49 -1.48)"/><rect class="cls-2" x="6.5" y="6.5" width="255.48" height="394.19" rx="123.7"/><path class="cls-2" d="M105.41,174.85" transform="translate(0.49 -1.48)"/><path class="cls-2" d="M105.41,174.85" transform="translate(0.49 -1.48)"/><path class="cls-2" d="M45.22,199.3" transform="translate(0.49 -1.48)"/><ellipse class="cls-2" cx="72.42" cy="180.95" rx="25.41" ry="28.06"/><ellipse class="cls-2" cx="195.14" cy="180.95" rx="25.41" ry="28.06"/><line class="cls-1" x1="33.75" y1="133.04" x2="88.68" y2="111.27"/><line class="cls-1" x1="229.7" y1="133.44" x2="174.77" y2="111.67"/><polygon class="cls-3" points="134.28 263.36 107.25 313.87 163.59 313.87 134.28 263.36"/><polyline class="cls-4" points="201.74 326.64 314.61 202 318.68 197.5"/><line class="cls-5" x1="81.86" y1="450.65" x2="134.85" y2="399.69"/><polygon class="cls-6" points="76.05 420.16 55.3 469.78 103.73 454.09 79.14 447.82 76.05 420.16"/><line class="cls-5" x1="332.59" y1="181.74" x2="315.35" y2="200.78"/><line class="cls-2" x1="264.49" y1="376.09" x2="293.47" y2="402.25"/><line class="cls-2" x1="234.25" y1="407.62" x2="252.24" y2="442.47"/><line class="cls-2" x1="282.28" y1="336.8" x2="319.44" y2="346.48"/></svg>