<svg xmlns="http://www.w3.org/2000/svg" viewBox="0 0 338.76 504.64"><defs><style>.cls-1,.cls-2,.cls-4,.cls-5{fill:none;}.cls-1,.cls-2,.cls-3,.cls-4,.cls-5,.cls-6{stroke:#231f20;stroke-miterlimit:10;}.cls-1,.cls-3,.cls-4,.cls-6{stroke-linecap:round;}.cls-1,.cls-2,.cls-3{stroke-width:13px;}.cls-3,.cls-6{fill:#231f20;}.cls-4,.cls-5{stroke-width:19px;}.cls-6{stroke-width:12px;}</style></defs><g id="Layer_2" data-name="Layer 2"><path class="cls-1" d="M350.37,449.16s.32,47.69,0,69.21c-.56,39,52,32.67,75.86,33.51" transform="translate(-177.42 -53.74)"/><path class="cls-1" d="M196.64,551.88c23.83-.84,76.43,5.44,75.87-33.51-.32-21.52,0-69.21,0-69.21" transform="translate(-177.42 -53.74)"/><path class="cls-2" d="M310.5,455.47h0a114.44,114.44,0,0,1-37.64-6.36C221.33,431.2,183.92,377.5,183.92,314V201.69c0-78.12,56.67-141.45,126.58-141.45h0c69.92,0,126.59,63.33,126.59,141.45V314C437.09,392.14,380.42,455.47,310.5,455.47Z" transform="translate(-177.42 -53.74)"/></g><g id="Layer_3" data-name="Layer 3"><ellipse class="cls-2" cx="73.87" cy="182.7" rx="25.18" ry="28.14"/><ellipse class="cls-2" cx="195.47" cy="182.7" rx="25.18" ry="28.14"/><line class="cls-1" x1="35.54" y1="134.66" x2="89.97" y2="112.83"/><line class="cls-1" x1="229.72" y1="135.06" x2="175.28" y2="113.23"/><polygon class="cls-3" points="135.16 265.33 108.38 315.98 164.2 315.98 135.16 265.33"/><polyline class="cls-4" points="202.01 328.78 313.86 203.8 317.89 199.3"/><line class="cls-5" x1="83.21" y1="453.11" x2="135.73" y2="402.02"/><polygon class="cls-6" points="77.45 422.54 56.9 472.3 104.89 456.56 80.52 450.28 77.45 422.54"/><line class="cls-5" x1="331.68" y1="183.5" x2="314.6" y2="202.58"/><line class="cls-2" x1="264.19" y1="378.36" x2="292.92" y2="404.58"/><line class="cls-2" x1="234.23" y1="409.97" x2="252.06" y2="444.91"/><line class="cls-2" x1="281.83" y1="338.96" x2="318.65" y2="348.66"/></g></svg>