<svg width="600" height="600" viewBox="0 0 600 600" fill="none" xmlns="http://www.w3.org/2000/svg">
<path d="M579.818 39.4805H560.519V20.1821C560.521 9.03635 551.484 0 540.337 0C529.19 0 520.155 9.03635 520.155 20.1821V51.3036L516.545 54.913C513.514 47.5935 506.31 42.4407 497.895 42.4407C486.75 42.4407 477.713 51.4771 477.713 62.6228V93.7443L462.294 109.164C413.254 66.6892 349.335 40.9606 279.52 40.9606C125.392 40.9618 0 166.354 0 320.481C0 399.203 32.7235 470.417 85.267 521.266L40.8528 555.208C31.9969 561.976 30.3047 574.643 37.0723 583.499C41.045 588.696 47.0485 591.428 53.1224 591.428C57.395 591.428 61.704 590.075 65.3626 587.279L117.034 547.791C162.855 580.638 218.966 599.999 279.518 599.999C340.071 599.999 396.182 580.636 442.003 547.791L493.674 587.279C497.333 590.075 501.64 591.428 505.915 591.428C511.988 591.428 517.993 588.696 521.965 583.499C528.732 574.642 527.04 561.976 518.184 555.208L473.77 521.266C526.313 470.416 559.037 399.202 559.037 320.481C559.037 250.666 533.307 186.746 490.835 137.707L506.254 122.288H537.376C548.522 122.288 557.558 113.251 557.558 102.106C557.558 93.6916 552.405 86.4857 545.086 83.4564L548.696 79.847H579.818C590.964 79.847 600 70.8107 600 59.665C600 48.5192 590.965 39.4805 579.818 39.4805ZM518.674 320.481C518.674 452.353 411.389 559.637 279.518 559.637C147.648 559.637 40.3641 452.352 40.3641 320.481C40.3641 188.611 147.65 81.3271 279.52 81.3271C338.204 81.3271 392.009 102.587 433.667 137.793L383.043 188.417C354.503 165.995 318.544 152.608 279.517 152.608C186.951 152.608 111.642 227.916 111.642 320.483C111.642 413.049 186.952 488.356 279.518 488.356C372.085 488.356 447.393 413.048 447.393 320.481C447.393 281.456 434.007 245.498 411.584 216.955L462.208 166.332C497.414 207.992 518.674 261.796 518.674 320.481ZM279.52 374.3C309.195 374.3 333.339 350.157 333.339 320.48C333.339 313.032 331.816 305.931 329.069 299.473L382.78 245.763C398.026 266.776 407.03 292.593 407.03 320.48C407.03 390.789 349.83 447.99 279.521 447.99C209.212 447.99 152.011 390.789 152.011 320.48C152.011 250.171 209.212 192.971 279.521 192.971C307.407 192.971 333.227 201.977 354.239 217.222L300.528 270.932C294.071 268.183 286.97 266.662 279.521 266.662C249.845 266.662 225.701 290.805 225.701 320.481C225.7 350.157 249.844 374.3 279.52 374.3Z" fill="black"/>
</svg>
